<svg width="19" height="19" viewBox="0 0 19 19" fill="none" xmlns="http://www.w3.org/2000/svg">
<path fill-rule="evenodd" clip-rule="evenodd" d="M18.05 1.58337C18.5747 1.58337 19 2.02643 19 2.57296V16.4271C19 16.9737 18.5747 17.4167 18.05 17.4167C17.5253 17.4167 17.1 16.9737 17.1 16.4271V2.57296C17.1 2.02643 17.5253 1.58337 18.05 1.58337ZM7.87825 2.8628C8.24925 2.47634 8.85075 2.47634 9.22175 2.8628L14.9218 8.8003C15.2927 9.18676 15.2927 9.81333 14.9218 10.1998L9.22175 16.1373C8.85075 16.5237 8.24925 16.5237 7.87825 16.1373C7.50725 15.7508 7.50725 15.1243 7.87825 14.7378L11.9565 10.4896H0.95C0.425329 10.4896 0 10.0466 0 9.50004C0 8.95351 0.425329 8.51046 0.95 8.51046H11.9565L7.87825 4.26228C7.50725 3.87583 7.50725 3.24926 7.87825 2.8628Z" fill="#09090B"/>
</svg>
